# xmcd
#
# Track frame offsets:
#	150
#	11395
#	22062
#	35570
#	48097
#	59815
#	70437
#	81922
#	93750
#	104710
#	117567
#	132100
#	145905
#	157882
#	168912
#	180175
#	193110
#	206112
#	218435
#	230192
#	242357
#	253132
#
# Disc length: 3537
#
# Revision: 3
# Processed by: cddbd v1.5.1PL0 Copyright (c) Steve Scherf et al.
# Submitted via: audiograbber 1.80
# Normalized: r2:DSETVAR1
#
DISCID=380dcf16
DTITLE=Various Artist - Beach Music Anthology Disc 3
DYEAR=1900
DGENRE=
TTITLE0=Showman - It Will Stand
TTITLE1=Deal, Bill and Rhondels - What Kind Of Fool Do You Think I Am)
TTITLE2=Bob and Earl - Harlem Shuffle
TTITLE3=Lewis, Barbara - Hello Stranger
TTITLE4=Jackson, Deon - Love Makes The World Go Round
TTITLE5=Everett, Betty - Shoop Shoop (It's In His Kiss)
TTITLE6=Spellman, Benny - Lipstick Traces (On A Cigarette)
TTITLE7=Mel and Tim - Backfield In Motion
TTITLE8=Jackson, Chuck - I Don't Want To Cry
TTITLE9=Poets - She Blew A Good Thing
TTITLE10=Winstons - Color Him Father
TTITLE11=Knight, Robert - Everlasting Love
TTITLE12=Parker, Robert - Barefootin'
TTITLE13=Esquires - Get On Up
TTITLE14=Chandler, Gene - Duke Of Earl
TTITLE15=Platters - Washed Ashore
TTITLE16=Butler, Jerry - He Will Break Your Heart
TTITLE17=Scott, Betty and Benson, Jo Jo - Lover's Holiday
TTITLE18=Lewis, Barbara - Baby I'm Yours
TTITLE19=K - Doe, Ernie
TTITLE20=Catalinas - You Haven't The Right
TTITLE21=Platters - I Love You 1000 Times
EXTD=
EXTT0=
EXTT1=
EXTT2=
EXTT3=
EXTT4=
EXTT5=
EXTT6=
EXTT7=
EXTT8=
EXTT9=
EXTT10=
EXTT11=
EXTT12=
EXTT13=
EXTT14=
EXTT15=
EXTT16=
EXTT17=
EXTT18=
EXTT19=
EXTT20=
EXTT21=
PLAYORDER=
